name C:\Users\u0101727\Documents\MyRepositories\upper-imu-dc\OpenSim\subject0\MA\ResultsMA\grid_4nodes_9dim\angles_22.mot
datacolumns 10
datarows 23
range 2250.01000000 2250.23000000
endheader 
time	clav_prot	clav_elev	scapula_abduction	scapula_elevation	scapula_upward_rot	scapula_winging	plane_elv	shoulder_elv	axial_rot	
       2250.01000000	        -50.00000000	         10.00000000	         -3.33333333	         10.00000000	         60.00000000	         10.00000000	         30.00000000	         26.66666667	         90.00000000	
       2250.02000000	        -38.33333333	         10.00000000	         -3.33333333	         10.00000000	         60.00000000	         10.00000000	         30.00000000	         26.66666667	         90.00000000	
       2250.03000000	        -26.66666667	         10.00000000	         -3.33333333	         10.00000000	         60.00000000	         10.00000000	         30.00000000	         26.66666667	         90.00000000	
       2250.04000000	        -15.00000000	         10.00000000	         -3.33333333	         10.00000000	         60.00000000	         10.00000000	         30.00000000	         26.66666667	         90.00000000	
       2250.05000000	        -50.00000000	         20.00000000	         -3.33333333	         10.00000000	         60.00000000	         10.00000000	         30.00000000	         26.66666667	         90.00000000	
       2250.06000000	        -38.33333333	         20.00000000	         -3.33333333	         10.00000000	         60.00000000	         10.00000000	         30.00000000	         26.66666667	         90.00000000	
       2250.07000000	        -26.66666667	         20.00000000	         -3.33333333	         10.00000000	         60.00000000	         10.00000000	         30.00000000	         26.66666667	         90.00000000	
       2250.08000000	        -15.00000000	         20.00000000	         -3.33333333	         10.00000000	         60.00000000	         10.00000000	         30.00000000	         26.66666667	         90.00000000	
       2250.09000000	        -50.00000000	        -10.00000000	         15.00000000	         10.00000000	         60.00000000	         10.00000000	         30.00000000	         26.66666667	         90.00000000	
       2250.10000000	        -38.33333333	        -10.00000000	         15.00000000	         10.00000000	         60.00000000	         10.00000000	         30.00000000	         26.66666667	         90.00000000	
       2250.11000000	        -26.66666667	        -10.00000000	         15.00000000	         10.00000000	         60.00000000	         10.00000000	         30.00000000	         26.66666667	         90.00000000	
       2250.12000000	        -15.00000000	        -10.00000000	         15.00000000	         10.00000000	         60.00000000	         10.00000000	         30.00000000	         26.66666667	         90.00000000	
       2250.13000000	        -50.00000000	          0.00000000	         15.00000000	         10.00000000	         60.00000000	         10.00000000	         30.00000000	         26.66666667	         90.00000000	
       2250.14000000	        -38.33333333	          0.00000000	         15.00000000	         10.00000000	         60.00000000	         10.00000000	         30.00000000	         26.66666667	         90.00000000	
       2250.15000000	        -26.66666667	          0.00000000	         15.00000000	         10.00000000	         60.00000000	         10.00000000	         30.00000000	         26.66666667	         90.00000000	
       2250.16000000	        -15.00000000	          0.00000000	         15.00000000	         10.00000000	         60.00000000	         10.00000000	         30.00000000	         26.66666667	         90.00000000	
       2250.17000000	        -50.00000000	         10.00000000	         15.00000000	         10.00000000	         60.00000000	         10.00000000	         30.00000000	         26.66666667	         90.00000000	
       2250.18000000	        -38.33333333	         10.00000000	         15.00000000	         10.00000000	         60.00000000	         10.00000000	         30.00000000	         26.66666667	         90.00000000	
       2250.19000000	        -26.66666667	         10.00000000	         15.00000000	         10.00000000	         60.00000000	         10.00000000	         30.00000000	         26.66666667	         90.00000000	
       2250.20000000	        -15.00000000	         10.00000000	         15.00000000	         10.00000000	         60.00000000	         10.00000000	         30.00000000	         26.66666667	         90.00000000	
       2250.21000000	        -50.00000000	         20.00000000	         15.00000000	         10.00000000	         60.00000000	         10.00000000	         30.00000000	         26.66666667	         90.00000000	
       2250.22000000	        -38.33333333	         20.00000000	         15.00000000	         10.00000000	         60.00000000	         10.00000000	         30.00000000	         26.66666667	         90.00000000	
       2250.23000000	        -26.66666667	         20.00000000	         15.00000000	         10.00000000	         60.00000000	         10.00000000	         30.00000000	         26.66666667	         90.00000000	
